<?xml version="1.0" encoding="utf-8"?>
<!-- Generator: Adobe Illustrator 21.1.0, SVG Export Plug-In . SVG Version: 6.00 Build 0)  -->
<svg version="1.1" id="clouds" xmlns="http://www.w3.org/2000/svg" xmlns:xlink="http://www.w3.org/1999/xlink" x="0px" y="0px"
	 viewBox="0 0 641 451.9" style="enable-background:new 0 0 641 451.9;" xml:space="preserve">
<style type="text/css">
	.st0{opacity:0.7;fill:#FFFFFF;}
	.st1{opacity:0.9;fill:#FFFFFF;}
	.st2{fill:#FFFFFF;}
</style>
<g id="clouds_1_">
	<path id="cloud_2_" class="st0" d="M584.9,189.8c21.1,0,38.5,15.6,41.5,35.8c0.7-0.1,1.5-0.1,2.2-0.1c14.5,0,26.3,12.3,26.6,27.6
		c2.4-1.4,5.2-2.1,8.2-2.1c9.3,0,16.8,7.5,16.8,16.8s-9.5,19.5-18.8,19.5c-78.7,0.3-130.9,1-209.3,0.5c-10.6,0-20.2-5-20.2-15.6
		s8.6-19.1,19.1-19.1c2.8,0,5.4,0.6,7.7,1.6c4.3-7.1,12.1-11.8,20.9-11.8c3.5,0,6.8,0.7,9.8,2.1c1.7-10.8,11-19,22.2-19
		c8.9,0,16.5,5.1,20.2,12.6c3.3-1.9,7-3.2,11-3.5c-0.1-1.1-0.1-2.2-0.1-3.3C543,208.6,561.8,189.8,584.9,189.8z"/>
	<path id="cloud_1_" class="st1" d="M147.6,374.1c0,1.7-0.1,3.4-0.2,5c6.1,0.5,11.8,2.4,16.8,5.4c5.6-11.4,17.3-19.3,30.9-19.3
		c17.2,0,31.4,12.6,34,29.1c4.6-2,9.7-3.2,15.1-3.2c13.6,0,25.5,7.3,32,18.1c3.6-1.6,7.6-2.5,11.8-2.5c16.1,0,29.2,13.1,29.2,29.2
		s-14.8,23.8-30.9,23.8c-119.8,0.8-199.7-0.4-320-0.8c-14.2,0-28.7-15.6-28.7-29.7c0-14.2,11.5-25.7,25.7-25.7
		c4.5,0,8.8,1.2,12.5,3.3c0.5-23.4,18.5-42.2,40.7-42.2c1.2,0,2.3,0.1,3.4,0.2c4.5-31,31.2-54.8,63.5-54.8
		C118.9,309.9,147.6,338.7,147.6,374.1z"/>
	<path id="cloud" class="st2" d="M653.5,208c54.7,0,100.1,40.4,107.8,93.1c1.9-0.2,3.9-0.3,5.8-0.3c37.7,0,68.3,32,69.2,71.7
		c6.3-3.5,13.5-5.5,21.2-5.5c24.1,0,43.7,19.6,43.7,43.7c0,24.1-24.7,50.5-48.8,50.5c-204.3,0.7-340.1,2.7-543.8,1.4
		c-27.4,0-52.5-13-52.5-40.4s22.3-49.7,49.7-49.7c7.1,0,13.9,1.5,20.1,4.2c11.1-18.4,31.3-30.8,54.4-30.8c9.1,0,17.8,1.9,25.6,5.4
		c4.4-28,28.6-49.4,57.7-49.4c23,0,43,13.4,52.5,32.7c8.5-5,18.2-8.3,28.6-9.1c-0.2-2.8-0.3-5.6-0.3-8.5
		C544.5,256.8,593.3,208,653.5,208z"/>
	<path id="cloud_3_" class="st0" d="M73.1,271.9c0,0.6,0,1.3-0.1,1.9c2.3,0.2,4.4,0.9,6.3,2c2.1-4.3,6.5-7.2,11.5-7.2
		c6.4,0,11.7,4.7,12.7,10.9c1.7-0.8,3.6-1.2,5.6-1.2c5.1,0,9.5,2.7,11.9,6.8c1.3-0.6,2.8-0.9,4.4-0.9c6,0,10.9,4.9,10.9,10.9
		s-5.5,8.9-11.5,8.9c-44.7,0.3-74.5-0.2-119.4-0.3c-5.3,0-10.7-5.8-10.7-11.1s4.3-9.6,9.6-9.6c1.7,0,3.3,0.4,4.7,1.2
		c0.2-8.7,6.9-15.7,15.2-15.7c0.4,0,0.9,0,1.3,0.1c1.7-11.6,11.7-20.4,23.7-20.4C62.4,248,73.1,258.7,73.1,271.9z"/>
</g>
<g id="mask">
</g>
</svg>
